<svg width="37" height="37" viewBox="0 0 37 37" fill="none" xmlns="http://www.w3.org/2000/svg">
<rect width="37" height="37" rx="18.5" fill="#2969FF"/>
<path d="M12.5601 10.8893C15.1024 9.00157 16.3735 8.0577 17.8253 8.00327C17.9417 7.99891 18.0583 7.99891 18.1747 8.00327C19.6265 8.0577 20.8976 9.00157 23.4399 10.8893C25.9822 12.777 27.2534 13.7209 27.7526 15.1151C27.7927 15.227 27.8287 15.3403 27.8606 15.4548C28.2586 16.8827 27.7731 18.4099 26.802 21.4643C25.8309 24.5187 25.3454 26.0459 24.2022 26.962C24.1105 27.0355 24.0162 27.1055 23.9195 27.172C22.7137 28 21.1425 28 18 28C14.8575 28 13.2863 28 12.0805 27.172C11.9838 27.1055 11.8895 27.0355 11.7978 26.962C10.6546 26.0459 10.1691 24.5187 9.19803 21.4643C8.22695 18.4099 7.74142 16.8827 8.13937 15.4548C8.1713 15.3403 8.20732 15.227 8.24737 15.1151C8.74662 13.7209 10.0178 12.777 12.5601 10.8893Z" fill="#FCFCFC"/>
<path d="M9.19803 21.4643L9.67453 21.3128L9.19803 21.4643ZM8.13937 15.4548L8.62101 15.5891L8.13937 15.4548ZM12.5601 10.8893L12.262 10.4879L12.5601 10.8893ZM8.24737 15.1151L7.77664 14.9466L8.24737 15.1151ZM12.0805 27.172L11.7975 27.5841L12.0805 27.172ZM11.7978 26.962L11.4851 27.3522L11.7978 26.962ZM26.802 21.4643L26.3255 21.3128L26.802 21.4643ZM24.2022 26.962L24.5149 27.3522L24.2022 26.962ZM23.9195 27.172L24.2025 27.5841L23.9195 27.172ZM23.4399 10.8893L23.1418 11.2907L23.4399 10.8893ZM27.7526 15.1151L28.2234 14.9466L27.7526 15.1151ZM27.8606 15.4548L27.379 15.5891L27.8606 15.4548ZM18.1747 8.00327L18.156 8.50292L18.1747 8.00327ZM17.8253 8.00327L17.844 8.50292L17.8253 8.00327ZM16.0934 22.9129C15.8172 22.9129 15.5934 23.1367 15.5934 23.4129C15.5934 23.689 15.8172 23.9129 16.0934 23.9129V22.9129ZM19.9066 23.9129C20.1828 23.9129 20.4066 23.689 20.4066 23.4129C20.4066 23.1367 20.1828 22.9129 19.9066 22.9129V23.9129ZM9.67453 21.3128C9.18576 19.7755 8.83161 18.6594 8.64514 17.7492C8.46096 16.8503 8.45114 16.1986 8.62101 15.5891L7.65773 15.3206C7.42965 16.1389 7.46362 16.9647 7.66549 17.95C7.86506 18.924 8.23922 20.0987 8.72153 21.6158L9.67453 21.3128ZM12.262 10.4879C10.9996 11.4253 10.0204 12.1515 9.2979 12.8204C8.56649 13.4975 8.06308 14.1466 7.77664 14.9466L8.7181 15.2837C8.93091 14.6894 9.31271 14.1694 9.97727 13.5542C10.6507 12.9307 11.5783 12.2411 12.8582 11.2907L12.262 10.4879ZM8.62101 15.5891C8.64972 15.4861 8.6821 15.3842 8.7181 15.2837L7.77664 14.9466C7.73254 15.0697 7.69287 15.1945 7.65773 15.3206L8.62101 15.5891ZM18 27.5C16.4177 27.5 15.2715 27.4993 14.3689 27.3995C13.4787 27.3011 12.8741 27.1103 12.3636 26.7598L11.7975 27.5841C12.4928 28.0616 13.2767 28.2849 14.2591 28.3935C15.2292 28.5007 16.4399 28.5 18 28.5V27.5ZM8.72153 21.6158C9.20382 23.1328 9.57676 24.308 9.97559 25.2161C10.3789 26.1343 10.8271 26.8249 11.4851 27.3522L12.1105 26.5718C11.6253 26.1831 11.2592 25.6519 10.8912 24.814C10.5187 23.9658 10.1633 22.8502 9.67453 21.3128L8.72153 21.6158ZM12.3636 26.7598C12.277 26.7003 12.1926 26.6377 12.1105 26.5718L11.4851 27.3522C11.5864 27.4334 11.6906 27.5107 11.7975 27.5841L12.3636 26.7598ZM26.3255 21.3128C25.8367 22.8502 25.4813 23.9658 25.1088 24.814C24.7408 25.6519 24.3747 26.1831 23.8895 26.5718L24.5149 27.3522C25.1729 26.8249 25.6211 26.1343 26.0244 25.2161C26.4232 24.308 26.7962 23.1328 27.2785 21.6158L26.3255 21.3128ZM18 28.5C19.5601 28.5 20.7708 28.5007 21.7409 28.3935C22.7233 28.2849 23.5072 28.0616 24.2025 27.5841L23.6364 26.7598C23.126 27.1103 22.5213 27.3011 21.6311 27.3995C20.7285 27.4993 19.5823 27.5 18 27.5V28.5ZM23.8895 26.5718C23.8074 26.6377 23.723 26.7003 23.6364 26.7598L24.2025 27.5841C24.3094 27.5107 24.4136 27.4334 24.5149 27.3522L23.8895 26.5718ZM23.1418 11.2907C24.4217 12.2411 25.3493 12.9307 26.0227 13.5542C26.6873 14.1694 27.0691 14.6894 27.2819 15.2837L28.2234 14.9466C27.9369 14.1466 27.4335 13.4975 26.7021 12.8204C25.9796 12.1515 25.0004 11.4253 23.738 10.4879L23.1418 11.2907ZM27.2785 21.6158C27.7608 20.0987 28.1349 18.924 28.3345 17.95C28.5364 16.9647 28.5704 16.1389 28.3423 15.3206L27.379 15.5891C27.5489 16.1986 27.539 16.8503 27.3549 17.7492C27.1684 18.6594 26.8142 19.7755 26.3255 21.3128L27.2785 21.6158ZM27.2819 15.2837C27.3179 15.3842 27.3503 15.4861 27.379 15.5891L28.3423 15.3206C28.3071 15.1945 28.2675 15.0697 28.2234 14.9466L27.2819 15.2837ZM23.738 10.4879C22.4757 9.55056 21.4971 8.8231 20.6511 8.3274C19.7951 7.82581 19.0324 7.53508 18.1935 7.50363L18.156 8.50292C18.7688 8.5259 19.3676 8.73432 20.1456 9.1902C20.9337 9.65197 21.8619 10.3403 23.1418 11.2907L23.738 10.4879ZM12.8582 11.2907C14.1381 10.3403 15.0663 9.65197 15.8544 9.1902C16.6325 8.73432 17.2312 8.5259 17.844 8.50292L17.8065 7.50363C16.9676 7.53508 16.2049 7.82581 15.3489 8.3274C14.5029 8.8231 13.5243 9.55056 12.262 10.4879L12.8582 11.2907ZM18.1935 7.50363C18.0645 7.49879 17.9355 7.49879 17.8065 7.50363L17.844 8.50292C17.948 8.49903 18.052 8.49903 18.156 8.50292L18.1935 7.50363ZM16.0934 23.9129H19.9066V22.9129H16.0934V23.9129Z" fill="#2969FF"/>
</svg>
